<?xml version="1.0" encoding="UTF-8" standalone="no"?>
<svg width="16px" height="16px" viewBox="0 0 16 16" version="1.1" xmlns="http://www.w3.org/2000/svg" xmlns:xlink="http://www.w3.org/1999/xlink">
    <!-- Generator: Sketch 47.1 (45422) - http://www.bohemiancoding.com/sketch -->
    <title>cog</title>
    <desc>Created with Sketch.</desc>
    <defs>
        <path d="M14.1125644,8.78399907 C14.1454628,8.52799933 14.1701351,8.27199878 14.1701351,7.99999952 C14.1701351,7.72800018 14.1454613,7.47199963 14.1125644,7.21599989 L15.8479186,5.89600031 C16.0041831,5.77600063 16.0453046,5.56000027 15.9466124,5.38400007 L14.3017273,2.6160002 C14.2030336,2.44000038 13.9809752,2.37600007 13.8000369,2.44000038 L11.7521552,3.24000033 C11.3244848,2.92000028 10.8639174,2.65600035 10.3622269,2.45600036 L10.0496987,0.33600042 C10.0250249,0.144000039 9.85231193,0 9.6467013,0 L6.35693123,0 C6.1513206,0 5.97860764,0.144000039 5.95393458,0.336000036 L5.64140633,2.45599999 C5.13971668,2.65599998 4.67914852,2.92800008 4.25147843,3.23999996 L2.20359636,2.44000001 C2.01443458,2.36799988 1.80059972,2.44000001 1.70190632,2.61599983 L0.0570212886,5.38399931 C-0.049896329,5.55999951 -0.000549629963,5.7759991 0.1557143,5.89599955 L1.89106812,7.21599989 C1.85817045,7.47199963 1.833497,7.73599954 1.833497,7.99999952 C1.833497,8.26399942 1.85817045,8.52799933 1.89106812,8.78399907 L0.155714489,10.1039987 C-0.000549629963,10.2239983 -0.0416717146,10.4399987 0.0570212886,10.615999 L1.70190632,13.3839988 C1.80059933,13.5599982 2.02265879,13.6239981 2.20359636,13.5599982 L4.25147805,12.7599983 C4.67914814,13.0799979 5.1397159,13.3439978 5.64140555,13.5439978 L5.9539338,15.6639975 C5.97860685,15.8559972 6.15131981,15.9999974 6.35693044,15.9999974 L9.64670047,15.9999974 C9.8523111,15.9999974 10.025024,15.8559972 10.0496971,15.6639975 L10.3622254,13.5439978 C10.863915,13.3439978 11.3244832,13.0719978 11.7521536,12.7599983 L13.8000353,13.5599982 C13.9891967,13.6319984 14.203032,13.5599982 14.3017258,13.3839988 L15.9466108,10.615999 C16.0453046,10.4399987 16.0041815,10.2239991 15.847917,10.1039987 L14.1125628,8.78399907 L14.1125644,8.78399907 Z M8.00181626,10.7999994 C6.41450188,10.7999994 5.12326746,9.54399967 5.12326746,7.99999952 C5.12326746,6.45599929 6.41450188,5.19999969 8.00181626,5.19999969 C9.58913057,5.19999969 10.8803651,6.45599929 10.8803651,7.99999952 C10.8803651,9.54399967 9.58913057,10.7999994 8.00181626,10.7999994 Z" id="path-1"></path>
        <filter x="-3.1%" y="-3.1%" width="106.2%" height="106.3%" filterUnits="objectBoundingBox" id="filter-2">
            <feOffset dx="0" dy="1" in="SourceAlpha" result="shadowOffsetInner1"></feOffset>
            <feComposite in="shadowOffsetInner1" in2="SourceAlpha" operator="arithmetic" k2="-1" k3="1" result="shadowInnerInner1"></feComposite>
            <feColorMatrix values="0 0 0 0 0.0598692424   0 0 0 0 0.0649712899   0 0 0 0 0.0734747024  0 0 0 1 0" type="matrix" in="shadowInnerInner1"></feColorMatrix>
        </filter>
    </defs>
    <g id="Page-1" stroke="none" stroke-width="1" fill="none" fill-rule="evenodd">
        <g id="Group-4" transform="translate(-152.000000, -8.000000)">
            <g id="cog" transform="translate(152.000000, 8.000000)">
                <g id="Fill-2">
                    <use fill="#393D44" fill-rule="evenodd" xlink:href="#path-1"></use>
                    <use fill="black" fill-opacity="1" filter="url(#filter-2)" xlink:href="#path-1"></use>
                </g>
            </g>
        </g>
    </g>
</svg>