<?xml version="1.0" encoding="UTF-8" standalone="no"?>
<svg width="8px" height="12px" viewBox="0 0 8 12" version="1.1" xmlns="http://www.w3.org/2000/svg" xmlns:xlink="http://www.w3.org/1999/xlink">
    <!-- Generator: Sketch 47.1 (45422) - http://www.bohemiancoding.com/sketch -->
    <title>lock</title>
    <desc>Created with Sketch.</desc>
    <defs></defs>
    <g id="Page-1" stroke="none" stroke-width="1" fill="none" fill-rule="evenodd">
        <g id="Group-4" transform="translate(-136.000000, -395.000000)" fill="#75777F">
            <g id="Stacked-Group" transform="translate(32.000000, 115.000000)">
                <g id="gutters" transform="translate(0.000000, 279.000000)">
                    <g id="lock" transform="translate(104.000000, 1.000000)">
                        <path d="M7,5.26756439 C7.59780137,5.61337381 8,6.25971764 8,7 L8,12 L0,12 L0,7 C-9.06584418e-17,6.25971764 0.40219863,5.61337381 1,5.26756439 L1,3 L1,3 C1,1.34314575 2.34314575,3.04359188e-16 4,0 L4,0 L4,0 C5.65685425,-3.04359188e-16 7,1.34314575 7,3 L7,5.26756439 Z M6,5 L6,3 C6,1.8954305 5.1045695,1 4,1 L4,1 L4,1 C2.8954305,1 2,1.8954305 2,3 L2,3 L2,5 L2,5 L2,5 Z" id="Combined-Shape"></path>
                    </g>
                </g>
            </g>
        </g>
    </g>
</svg>